<svg width="110" height="110" viewBox="0 0 110 110" fill="none" xmlns="http://www.w3.org/2000/svg">
<path d="M105 55C105 82.6142 82.6142 105 55 105C27.3858 105 5 82.6142 5 55C5 27.3858 27.3858 5 55 5C82.6142 5 105 27.3858 105 55Z" fill="#F0F0F0"/>
<mask id="mask0_159_1345" style="mask-type:alpha" maskUnits="userSpaceOnUse" x="5" y="5" width="100" height="100">
<path d="M105 55C105 82.6142 82.6142 105 55 105C27.3858 105 5 82.6142 5 55C5 27.3858 27.3858 5 55 5C82.6142 5 105 27.3858 105 55Z" fill="#FD5A46"/>
</mask>
<g mask="url(#mask0_159_1345)">
<path d="M71.0031 73.3611C71.6111 72.9146 72.4363 73.5032 72.212 74.2234L70.597 79.4105C70.5232 79.6475 70.5663 79.9055 70.7133 80.1056L73.9291 84.4843C74.3757 85.0922 73.787 85.9175 73.0668 85.6932L67.9758 84.1081C67.687 84.0181 67.3723 84.1029 67.1677 84.3257L57.6689 94.6694C57.0459 95.3478 55.9673 94.5784 56.4059 93.7685L63.0935 81.4196C63.2376 81.1536 63.2152 80.8285 63.0362 80.5847L59.8799 76.2871C59.4334 75.6792 60.022 74.8539 60.7423 75.0782L65.9294 76.6933C66.1664 76.7671 66.4243 76.7239 66.6244 76.577L71.0031 73.3611Z" fill="white"/>
<path fill-rule="evenodd" clip-rule="evenodd" d="M70.4112 72.5551C71.797 71.5373 73.678 72.8791 73.1669 74.5208L71.5846 79.6026L74.7351 83.8924C75.7529 85.2782 74.4112 87.1592 72.7695 86.6481L67.8107 85.104L58.4055 95.3458C56.9855 96.8922 54.5269 95.1384 55.5266 93.2923L62.1483 81.0651L59.0739 76.8791C58.0561 75.4933 59.3979 73.6123 61.0396 74.1234L66.1214 75.7057L70.4112 72.5551ZM71.0599 74.5602L67.2164 77.383C66.7603 77.7179 66.1723 77.8163 65.6321 77.6481L61.0789 76.2304L63.8422 79.9928C64.2503 80.5484 64.3012 81.2896 63.9729 81.8958L58.1247 92.6947L66.4312 83.6493C66.8975 83.1416 67.6149 82.9484 68.2731 83.1533L72.7301 84.5411L69.9073 80.6976C69.5724 80.2415 69.474 79.6535 69.6422 79.1133L71.0599 74.5602Z" fill="#404040"/>
<path d="M30.5734 39.8124C30.8688 38.6441 32.4842 38.5306 32.94 39.6461L36.2227 47.6804C36.3726 48.0475 36.6881 48.3215 37.0726 48.4187L45.4869 50.5456C46.6552 50.8409 46.7687 52.4563 45.6532 52.9121L37.7678 56.134C37.3205 56.3168 37.0188 56.7412 36.9932 57.2236L35.8023 79.6271C35.7243 81.0964 33.6128 81.2447 33.33 79.8008L29.0181 57.784C28.9252 57.3098 28.5671 56.9318 28.0987 56.8134L19.8402 54.7259C18.6719 54.4305 18.5584 52.8151 19.6739 52.3593L27.7082 49.0767C28.0753 48.9267 28.3493 48.6112 28.4465 48.2268L30.5734 39.8124Z" fill="white"/>
<path fill-rule="evenodd" clip-rule="evenodd" d="M29.6042 39.5673C30.136 37.4633 33.0451 37.2589 33.8659 39.2678L37.1486 47.3021C37.1785 47.3752 37.2413 47.4298 37.3179 47.4491L45.7322 49.5761C47.8362 50.1079 48.0406 53.017 46.0317 53.8378L38.1463 57.0597C38.0572 57.0961 37.9971 57.1806 37.992 57.2767L36.8012 79.6801C36.6605 82.3261 32.8582 82.5932 32.3489 79.9929L28.037 57.9762C28.0185 57.8817 27.9472 57.8064 27.8539 57.7829L19.5954 55.6953C17.4914 55.1635 17.287 52.2544 19.296 51.4336L27.3302 48.1509C27.4033 48.121 27.4579 48.0582 27.4772 47.9816L29.6042 39.5673ZM31.6225 39.9224C31.5949 39.9441 31.5626 39.9806 31.5432 40.0574L29.4163 48.4718C29.2412 49.1641 28.7478 49.7322 28.0867 50.0023L20.0524 53.285C19.9791 53.315 19.9475 53.352 19.9298 53.3824C19.9083 53.4193 19.8942 53.4719 19.8984 53.5327C19.9027 53.5934 19.9241 53.6435 19.9505 53.677C19.9722 53.7047 20.0087 53.7369 20.0855 53.7563L28.344 55.8439C29.1876 56.0571 29.8324 56.7379 29.9997 57.5918L34.3116 79.6085C34.3335 79.7201 34.3747 79.7537 34.3959 79.7684C34.4302 79.7923 34.4922 79.8145 34.5731 79.8088C34.654 79.8031 34.7123 79.7725 34.7429 79.7441C34.7618 79.7265 34.798 79.6874 34.804 79.5739L35.9948 57.1705C36.041 56.3016 36.5843 55.5374 37.3898 55.2083L45.2752 51.9864C45.3486 51.9564 45.3802 51.9194 45.3978 51.889C45.4193 51.8521 45.4335 51.7995 45.4292 51.7388C45.4249 51.678 45.4036 51.628 45.3771 51.5944C45.3554 51.5668 45.3189 51.5345 45.2421 51.5151L36.8277 49.3881C36.1354 49.2131 35.5673 48.7196 35.2972 48.0586L32.0145 40.0243C31.9845 39.951 31.9475 39.9193 31.9171 39.9017C31.8802 39.8802 31.8276 39.866 31.7669 39.8703C31.7061 39.8746 31.6561 39.8959 31.6225 39.9224Z" fill="#404040"/>
<path d="M66.5346 18.7376C67.5671 17.2207 69.937 17.9017 70.0065 19.7354L70.5072 32.9414C70.5301 33.5448 70.8383 34.1015 71.3375 34.4412L82.2627 41.8768C83.7797 42.9092 83.0986 45.2791 81.265 45.3486L68.3037 45.8401C67.5685 45.868 66.9153 46.3175 66.6267 46.9943L53.2263 78.4181C52.3475 80.479 49.2499 79.5888 49.5993 77.3757L54.9267 43.6319C55.0414 42.9052 54.7266 42.1775 54.1184 41.7636L43.3955 34.4657C41.8785 33.4333 42.5596 31.0634 44.3932 30.9939L57.5993 30.4931C58.2027 30.4702 58.7593 30.1621 59.0991 29.6629L66.5346 18.7376Z" fill="white"/>
<path fill-rule="evenodd" clip-rule="evenodd" d="M65.7073 18.175C67.2827 15.8602 70.899 16.8994 71.0051 19.6975L71.5059 32.9035C71.5167 33.1895 71.6628 33.4534 71.8995 33.6145L82.8247 41.0501C85.1395 42.6255 84.1003 46.2418 81.3022 46.3479L68.3409 46.8394C67.9924 46.8526 67.6827 47.0657 67.5459 47.3865L54.1455 78.8103C52.8045 81.9551 48.0777 80.5968 48.6108 77.2198L53.9383 43.476C53.9927 43.1315 53.8434 42.7865 53.5551 42.5902L42.8322 35.2924C40.5174 33.717 41.5567 30.1007 44.3547 29.9946L57.5607 29.4938C57.8468 29.483 58.1107 29.3369 58.2717 29.1003L65.7073 18.175ZM69.0066 19.7733C68.9736 18.904 67.8501 18.5811 67.3607 19.3003L59.9251 30.2256C59.4067 30.9873 58.5573 31.4575 57.6365 31.4924L44.4305 31.9932C43.5612 32.0261 43.2384 33.1496 43.9575 33.639L54.6804 40.9368C55.6085 41.5685 56.0889 42.6789 55.9138 43.7879L50.5864 77.5317C50.4208 78.5808 51.8892 79.0028 52.3058 78.0258L65.7062 46.602C66.1466 45.5693 67.1433 44.8834 68.2651 44.8408L81.2265 44.3493C82.0957 44.3164 82.4186 43.1929 81.6994 42.7035L70.7742 35.2679C70.0124 34.7495 69.5422 33.9 69.5073 32.9793L69.0066 19.7733Z" fill="#404040"/>
<path d="M88 32.5C88 33.8807 86.8807 35 85.5 35C84.1193 35 83 33.8807 83 32.5C83 31.1193 84.1193 30 85.5 30C86.8807 30 88 31.1193 88 32.5Z" fill="#D9D9D9"/>
<path fill-rule="evenodd" clip-rule="evenodd" d="M89 32.5C89 34.433 87.433 36 85.5 36C83.567 36 82 34.433 82 32.5C82 30.567 83.567 29 85.5 29C87.433 29 89 30.567 89 32.5ZM85.5 35C86.8807 35 88 33.8807 88 32.5C88 31.1193 86.8807 30 85.5 30C84.1193 30 83 31.1193 83 32.5C83 33.8807 84.1193 35 85.5 35Z" fill="#404040"/>
<path d="M23 73.5C23 74.8807 21.8807 76 20.5 76C19.1193 76 18 74.8807 18 73.5C18 72.1193 19.1193 71 20.5 71C21.8807 71 23 72.1193 23 73.5Z" fill="#D9D9D9"/>
<path fill-rule="evenodd" clip-rule="evenodd" d="M24 73.5C24 75.433 22.433 77 20.5 77C18.567 77 17 75.433 17 73.5C17 71.567 18.567 70 20.5 70C22.433 70 24 71.567 24 73.5ZM20.5 76C21.8807 76 23 74.8807 23 73.5C23 72.1193 21.8807 71 20.5 71C19.1193 71 18 72.1193 18 73.5C18 74.8807 19.1193 76 20.5 76Z" fill="#404040"/>
<path d="M85 63.5C85 64.8807 83.8807 66 82.5 66C81.1193 66 80 64.8807 80 63.5C80 62.1193 81.1193 61 82.5 61C83.8807 61 85 62.1193 85 63.5Z" fill="#D9D9D9"/>
<path fill-rule="evenodd" clip-rule="evenodd" d="M86 63.5C86 65.433 84.433 67 82.5 67C80.567 67 79 65.433 79 63.5C79 61.567 80.567 60 82.5 60C84.433 60 86 61.567 86 63.5ZM82.5 66C83.8807 66 85 64.8807 85 63.5C85 62.1193 83.8807 61 82.5 61C81.1193 61 80 62.1193 80 63.5C80 64.8807 81.1193 66 82.5 66Z" fill="#404040"/>
</g>
</svg>
