<svg width="110" height="110" viewBox="0 0 110 110" fill="none" xmlns="http://www.w3.org/2000/svg">
<circle cx="55" cy="55" r="50" fill="white"/>
<mask id="mask0_159_1283" style="mask-type:alpha" maskUnits="userSpaceOnUse" x="3" y="3" width="104" height="104">
<circle cx="55" cy="55" r="51" fill="url(#paint0_linear_159_1283)" stroke="#3F3007" stroke-width="2"/>
</mask>
<g mask="url(#mask0_159_1283)">
<path fill-rule="evenodd" clip-rule="evenodd" d="M66.3789 27H44V49.0253H66.3789V27ZM61.4828 31.405H48.1953V44.6202H61.4828V31.405Z" fill="#9D9D9D"/>
<path d="M44 27V26H43V27H44ZM66.3789 27H67.3789V26H66.3789V27ZM44 49.0253H43V50.0253H44V49.0253ZM66.3789 49.0253V50.0253H67.3789V49.0253H66.3789ZM48.1953 31.405V30.405H47.1953V31.405H48.1953ZM61.4828 31.405H62.4828V30.405H61.4828V31.405ZM48.1953 44.6202H47.1953V45.6202H48.1953V44.6202ZM61.4828 44.6202V45.6202H62.4828V44.6202H61.4828ZM44 28H66.3789V26H44V28ZM45 49.0253V27H43V49.0253H45ZM66.3789 48.0253H44V50.0253H66.3789V48.0253ZM65.3789 27V49.0253H67.3789V27H65.3789ZM48.1953 32.405H61.4828V30.405H48.1953V32.405ZM49.1953 44.6202V31.405H47.1953V44.6202H49.1953ZM61.4828 43.6202H48.1953V45.6202H61.4828V43.6202ZM60.4828 31.405V44.6202H62.4828V31.405H60.4828Z" fill="#404040"/>
<rect x="34.0752" y="35.0759" width="41.8481" height="49.1899" fill="#9D9D9D" stroke="#404040" stroke-width="2"/>
<rect x="40" y="61" width="30" height="17" fill="#9D9D9D" stroke="#404040" stroke-width="2"/>
<rect x="26" y="57.1013" width="8.07595" height="22.0253" fill="#9D9D9D" stroke="#404040" stroke-width="2"/>
<rect x="75.9248" y="57.1013" width="8.07595" height="22.0253" fill="#9D9D9D" stroke="#404040" stroke-width="2"/>
<path d="M43.6201 49.0254H66.3796" stroke="#404040" stroke-width="2"/>
<path d="M62.708 51.9619L62.708 49.0252" stroke="#404040" stroke-width="2"/>
<path d="M77.2524 20.5725C77.5667 20.1108 78.288 20.318 78.3091 20.8761L78.4615 24.8955C78.4685 25.0791 78.5623 25.2486 78.7142 25.352L82.0394 27.615C82.5011 27.9293 82.2938 28.6505 81.7357 28.6717L77.7909 28.8213C77.5671 28.8298 77.3683 28.9666 77.2805 29.1726L73.202 38.7366C72.9345 39.3639 71.9917 39.093 72.098 38.4194L73.7195 28.1492C73.7544 27.928 73.6586 27.7066 73.4735 27.5806L70.2099 25.3594C69.7482 25.0452 69.9555 24.3239 70.5135 24.3027L74.5329 24.1503C74.7165 24.1434 74.886 24.0496 74.9894 23.8976L77.2524 20.5725Z" fill="#D9D9D9" stroke="#404040" stroke-width="2"/>
<path d="M85.9237 36.7072C86.3883 36.3974 86.979 36.8605 86.7889 37.3856L85.4203 41.1678C85.3578 41.3407 85.381 41.5329 85.483 41.6858L87.7145 45.0322C88.0244 45.4969 87.5613 46.0875 87.0362 45.8975L83.324 44.5542C83.1134 44.478 82.8778 44.5301 82.719 44.688L75.3465 52.0195C74.863 52.5004 74.091 51.8951 74.4426 51.3108L79.8033 42.4019C79.9187 42.2101 79.9131 41.9688 79.7889 41.7825L77.5987 38.4981C77.2888 38.0334 77.7519 37.4428 78.2771 37.6328L82.0593 39.0015C82.2321 39.064 82.4244 39.0407 82.5773 38.9388L85.9237 36.7072Z" fill="#D9D9D9" stroke="#404040" stroke-width="2"/>
</g>
<defs>
<linearGradient id="paint0_linear_159_1283" x1="55" y1="5" x2="55" y2="105" gradientUnits="userSpaceOnUse">
<stop stop-color="#DBDBDB"/>
<stop offset="0.520833" stop-color="white"/>
<stop offset="1" stop-color="#DBDBDB"/>
</linearGradient>
</defs>
</svg>
