<svg width="110" height="110" viewBox="0 0 110 110" fill="none" xmlns="http://www.w3.org/2000/svg">
<circle cx="55" cy="55" r="50" fill="#225BA0"/>
<mask id="mask0_159_1134" style="mask-type:alpha" maskUnits="userSpaceOnUse" x="5" y="5" width="100" height="100">
<circle cx="55" cy="55" r="50" fill="url(#paint0_linear_159_1134)"/>
</mask>
<g mask="url(#mask0_159_1134)">
<path d="M82.3241 8.86901L84.5399 27.5436C84.6643 28.5921 85.4909 29.4187 86.5394 29.5431L105.214 31.7589C105.339 31.7737 105.383 31.8174 105.404 31.8437C105.436 31.8826 105.465 31.9514 105.465 32.0415C105.465 32.1316 105.436 32.2004 105.404 32.2393C105.383 32.2656 105.339 32.3093 105.214 32.3241L86.5394 34.5399C85.4909 34.6643 84.6643 35.4909 84.5399 36.5394L82.3241 55.214C82.3093 55.3385 82.2656 55.3829 82.2393 55.4041C82.2004 55.4356 82.1316 55.465 82.0415 55.465C81.9514 55.465 81.8826 55.4356 81.8437 55.4041C81.8174 55.3829 81.7737 55.3385 81.7589 55.214L79.5431 36.5394C79.4187 35.4909 78.5921 34.6643 77.5436 34.5399L58.869 32.3241C58.7445 32.3093 58.7001 32.2656 58.6789 32.2393C58.6474 32.2004 58.618 32.1316 58.618 32.0415C58.618 31.9514 58.6474 31.8826 58.6789 31.8437C58.7001 31.8174 58.7445 31.7737 58.869 31.7589L77.5436 29.5431C78.5921 29.4187 79.4187 28.5921 79.5431 27.5436L81.7589 8.86902C81.7737 8.74449 81.8174 8.7001 81.8437 8.67887C81.8826 8.64739 81.9514 8.61796 82.0415 8.61796C82.1316 8.61796 82.2004 8.64739 82.2393 8.67887C82.2656 8.7001 82.3093 8.74448 82.3241 8.86901Z" fill="#FCF9ED" stroke="#3F3007" stroke-width="2"/>
<circle cx="55.6482" cy="55.0701" r="32.0701" fill="#FCF9ED" stroke="#3F3007" stroke-width="2"/>
<path fill-rule="evenodd" clip-rule="evenodd" d="M53.7464 23.0555C53.7664 23.0713 53.7864 23.0872 53.8063 23.103C48.7923 27.5692 44.8264 33.1869 42.3237 39.5411C38.4088 38.2358 34.7554 36.3586 31.4627 34.0087C31.0238 34.5122 30.6005 35.0295 30.1934 35.5599C33.6584 38.0489 37.5072 40.0375 41.634 41.4198C40.1434 45.7928 39.3347 50.4814 39.3347 55.3589C39.3347 60.2365 40.1434 64.9252 41.634 69.2983C37.6219 70.6422 33.8725 72.5592 30.4831 74.952C30.8986 75.4772 31.3303 75.9892 31.7773 76.4871C34.9877 74.2409 38.5332 72.4409 42.3238 71.1771C44.7215 77.2645 48.4621 82.676 53.1808 87.0466C53.9951 87.1086 54.8179 87.1401 55.6482 87.1401C56.267 87.1401 56.8817 87.1226 57.4918 87.088C62.2316 82.7102 65.9883 77.2838 68.3935 71.1771C72.3235 72.4874 75.99 74.374 79.2927 76.7366C79.7449 76.2434 80.1819 75.7359 80.6029 75.2151C77.1173 72.6994 73.2414 70.6911 69.0833 69.2983C70.5739 64.9252 71.3826 60.2365 71.3826 55.3589C71.3826 50.4814 70.5739 45.7928 69.0834 41.4198C73.3577 39.9881 77.3338 37.9059 80.8942 35.291C80.4816 34.7649 80.0528 34.2521 79.6087 33.7533C76.2244 36.2228 72.4493 38.1888 68.3936 39.5411C65.891 33.1869 61.9251 27.5692 56.911 23.103C56.9424 23.078 56.9739 23.0531 57.0054 23.0282C56.5553 23.0095 56.1029 23 55.6482 23C55.0097 23 54.3756 23.0187 53.7464 23.0555ZM55.3587 86.3177C60.2073 82.0609 64.0476 76.6831 66.4746 70.5892C62.9386 69.6003 59.2104 69.0715 55.3587 69.0715C51.507 69.0715 47.7788 69.6003 44.2427 70.5892C46.6698 76.6831 50.51 82.0609 55.3587 86.3177ZM69.3826 55.3589C69.3826 50.6871 68.6047 46.197 67.1713 42.011C63.417 43.0764 59.4544 43.6466 55.3587 43.6466C51.2629 43.6466 47.3004 43.0764 43.546 42.011C42.1127 46.197 41.3347 50.6871 41.3347 55.3589C41.3347 60.0308 42.1127 64.5211 43.5461 68.7071C47.3004 67.6418 51.263 67.0715 55.3587 67.0715C59.4544 67.0715 63.4169 67.6418 67.1712 68.7071C68.6046 64.5211 69.3826 60.0308 69.3826 55.3589ZM55.3587 41.6466C59.2104 41.6466 62.9386 41.1178 66.4747 40.1289C64.0477 34.0349 60.2074 28.657 55.3587 24.4001C50.5099 28.657 46.6696 34.0349 44.2426 40.1289C47.7787 41.1178 51.5069 41.6466 55.3587 41.6466Z" fill="#3F3007"/>
<path d="M55.3594 23L55.3594 87.1401" stroke="#3F3007" stroke-width="2" stroke-linejoin="round"/>
<path d="M23 55.359L87.1401 55.359" stroke="#3F3007" stroke-width="2" stroke-linejoin="round"/>
<path d="M32.3241 58.869L34.5399 77.5436C34.6643 78.5921 35.4909 79.4187 36.5394 79.5431L55.214 81.7589C55.3385 81.7737 55.3829 81.8174 55.4041 81.8437C55.4356 81.8826 55.465 81.9514 55.465 82.0415C55.465 82.1316 55.4356 82.2004 55.4041 82.2393C55.3829 82.2656 55.3385 82.3093 55.214 82.3241L36.5394 84.5399C35.4909 84.6643 34.6643 85.4909 34.5399 86.5394L32.3241 105.214C32.3093 105.339 32.2656 105.383 32.2393 105.404C32.2004 105.436 32.1316 105.465 32.0415 105.465C31.9514 105.465 31.8826 105.436 31.8437 105.404C31.8174 105.383 31.7737 105.339 31.7589 105.214L29.5431 86.5394C29.4187 85.4909 28.5921 84.6643 27.5436 84.5399L8.86902 82.3241C8.74449 82.3093 8.7001 82.2656 8.67887 82.2393C8.64739 82.2004 8.61796 82.1316 8.61796 82.0415C8.61796 81.9514 8.64739 81.8826 8.67887 81.8437C8.7001 81.8174 8.74448 81.7737 8.86901 81.7589L27.5436 79.5431C28.5921 79.4187 29.4187 78.5921 29.5431 77.5436L31.7589 58.869C31.7737 58.7445 31.8174 58.7001 31.8437 58.6789C31.8826 58.6474 31.9514 58.618 32.0415 58.618C32.1316 58.618 32.2004 58.6474 32.2393 58.6789C32.2656 58.7001 32.3093 58.7445 32.3241 58.869Z" fill="#FCF9ED" stroke="#3F3007" stroke-width="2"/>
</g>
<defs>
<linearGradient id="paint0_linear_159_1134" x1="55" y1="5" x2="55" y2="105" gradientUnits="userSpaceOnUse">
<stop stop-color="#DBDBDB"/>
<stop offset="0.520833" stop-color="white"/>
<stop offset="1" stop-color="#DBDBDB"/>
</linearGradient>
</defs>
</svg>
