<svg width="110" height="110" viewBox="0 0 110 110" fill="none" xmlns="http://www.w3.org/2000/svg">
<circle cx="55" cy="55" r="50" fill="#FCF9ED"/>
<mask id="mask0_159_1159" style="mask-type:alpha" maskUnits="userSpaceOnUse" x="3" y="3" width="104" height="104">
<circle cx="55" cy="55" r="51" fill="url(#paint0_linear_159_1159)" stroke="#3F3007" stroke-width="2"/>
</mask>
<g mask="url(#mask0_159_1159)">
<path fill-rule="evenodd" clip-rule="evenodd" d="M76.4207 62.1452L35.7451 49.1342L31.8024 61.4601L46.9577 66.3079L39.0774 87.5646L51.4033 91.5074L57.3227 69.6234L72.478 74.4712L76.4207 62.1452Z" fill="#F0B101"/>
<path d="M35.7451 49.1342L36.0498 48.1817L35.0973 47.877L34.7927 48.8295L35.7451 49.1342ZM76.4207 62.1452L77.3732 62.4499L77.6778 61.4974L76.7254 61.1928L76.4207 62.1452ZM31.8024 61.4601L30.8499 61.1554L30.5452 62.1079L31.4977 62.4126L31.8024 61.4601ZM46.9577 66.3079L47.8953 66.6555L48.2591 65.6743L47.2623 65.3554L46.9577 66.3079ZM39.0774 87.5646L38.1398 87.217L37.776 88.1983L38.7727 88.5171L39.0774 87.5646ZM51.4033 91.5074L51.0987 92.4599L52.0954 92.7787L52.3687 91.7685L51.4033 91.5074ZM57.3227 69.6234L57.6273 68.6709L56.6306 68.3521L56.3574 69.3623L57.3227 69.6234ZM72.478 74.4712L72.1733 75.4236L73.1258 75.7283L73.4304 74.7758L72.478 74.4712ZM35.4405 50.0866L76.1161 63.0977L76.7254 61.1928L36.0498 48.1817L35.4405 50.0866ZM32.7548 61.7648L36.6976 49.4388L34.7927 48.8295L30.8499 61.1554L32.7548 61.7648ZM47.2623 65.3554L32.107 60.5076L31.4977 62.4126L46.653 67.2603L47.2623 65.3554ZM40.015 87.9122L47.8953 66.6555L46.02 65.9603L38.1398 87.217L40.015 87.9122ZM51.708 90.5549L39.3821 86.6122L38.7727 88.5171L51.0987 92.4599L51.708 90.5549ZM56.3574 69.3623L50.438 91.2463L52.3687 91.7685L58.288 69.8845L56.3574 69.3623ZM72.7826 73.5187L57.6273 68.6709L57.018 70.5758L72.1733 75.4236L72.7826 73.5187ZM75.4683 61.8405L71.5255 74.1665L73.4304 74.7758L77.3732 62.4499L75.4683 61.8405Z" fill="#3F3007"/>
<path d="M38.2114 49.9228L43.8039 21.8201L71.8454 30.7898L67.8041 43.4239L75.2351 31.8741L85.7121 35.2254L73.3403 61.1596L38.2114 49.9228Z" fill="#FCF9ED" stroke="#3F3007" stroke-width="2" stroke-linejoin="bevel"/>
<path d="M41.5001 32.9999L43.804 21.8201L71.8455 30.7899L67.8042 43.424L75.2352 31.8741L85.7122 35.2255L82.5 42.4999L41.5001 32.9999Z" fill="#225BA0" stroke="#3F3007" stroke-width="2" stroke-linejoin="bevel"/>
<circle cx="47.0155" cy="83.9895" r="2.58824" transform="rotate(17.7381 47.0155 83.9895)" fill="#3F3007"/>
</g>
<defs>
<linearGradient id="paint0_linear_159_1159" x1="55" y1="5" x2="55" y2="105" gradientUnits="userSpaceOnUse">
<stop stop-color="#DBDBDB"/>
<stop offset="0.520833" stop-color="white"/>
<stop offset="1" stop-color="#DBDBDB"/>
</linearGradient>
</defs>
</svg>
