<svg width="110" height="110" viewBox="0 0 110 110" fill="none" xmlns="http://www.w3.org/2000/svg">
<circle cx="55" cy="55" r="50" fill="#FD5A46"/>
<mask id="mask0_147_1682" style="mask-type:alpha" maskUnits="userSpaceOnUse" x="5" y="5" width="100" height="100">
<circle cx="55" cy="55" r="50" fill="#FD5A46"/>
</mask>
<g mask="url(#mask0_147_1682)">
<path d="M71.0032 73.3611C71.6112 72.9146 72.4365 73.5032 72.2122 74.2234L70.5971 79.4105C70.5233 79.6475 70.5665 79.9055 70.7134 80.1056L73.9293 84.4842C74.3758 85.0922 73.7872 85.9175 73.067 85.6932L67.976 84.1081C67.6872 84.0181 67.3725 84.1029 67.1679 84.3257L57.6691 94.6694C57.0461 95.3478 55.9675 94.5784 56.4061 93.7685L63.0937 81.4196C63.2377 81.1536 63.2154 80.8285 63.0364 80.5847L59.8801 76.2871C59.4335 75.6792 60.0222 74.8539 60.7424 75.0782L65.9295 76.6933C66.1665 76.7671 66.4245 76.7239 66.6246 76.5769L71.0032 73.3611Z" fill="#FCF9ED" stroke="#3F3007" stroke-width="2"/>
<path d="M30.5738 39.8123C30.8692 38.644 32.4846 38.5305 32.9404 39.646L36.2231 47.6803C36.373 48.0474 36.6885 48.3214 37.073 48.4186L45.4873 50.5455C46.6556 50.8409 46.7691 52.4563 45.6536 52.9121L37.7682 56.1339C37.3209 56.3167 37.0192 56.7411 36.9936 57.2236L35.8027 79.627C35.7246 81.0963 33.6132 81.2447 33.3304 79.8007L29.0185 57.7839C28.9256 57.3098 28.5675 56.9317 28.0991 56.8133L19.8406 54.7258C18.6723 54.4305 18.5588 52.8151 19.6743 52.3593L27.7086 49.0766C28.0757 48.9266 28.3497 48.6111 28.4469 48.2267L30.5738 39.8123Z" fill="#FCF9ED" stroke="#3F3007" stroke-width="2"/>
<path d="M66.5344 18.7377C67.5669 17.2208 69.9368 17.9018 70.0063 19.7355L70.507 32.9415C70.5299 33.5449 70.8381 34.1015 71.3373 34.4413L82.2625 41.8769C83.7795 42.9093 83.0984 45.2792 81.2648 45.3487L68.3035 45.8402C67.5683 45.8681 66.9151 46.3176 66.6265 46.9944L53.2261 78.4182C52.3473 80.4791 49.2497 79.5889 49.5991 77.3758L54.9265 43.632C55.0412 42.9053 54.7264 42.1776 54.1182 41.7636L43.3953 34.4658C41.8783 33.4334 42.5594 31.0635 44.393 30.994L57.5991 30.4932C58.2025 30.4703 58.7591 30.1622 59.0989 29.663L66.5344 18.7377Z" fill="#FCF9ED" stroke="#3F3007" stroke-width="2"/>
<circle cx="85.5" cy="32.5" r="3.5" fill="#F0B101" stroke="#3F3007" stroke-width="2"/>
<circle cx="20.5" cy="73.5" r="3.5" fill="#F0B101" stroke="#3F3007" stroke-width="2"/>
<circle cx="82.5" cy="63.5" r="3.5" fill="#F0B101" stroke="#3F3007" stroke-width="2"/>
</g>
</svg>
