<svg width="110" height="110" viewBox="0 0 110 110" fill="none" xmlns="http://www.w3.org/2000/svg">
<circle cx="55" cy="55" r="50" fill="#FCF9ED"/>
<path d="M23 86L88 86" stroke="#3F3007" stroke-width="2"/>
<path d="M55 40V31" stroke="#3F3007" stroke-width="2"/>
<rect x="26" y="63" width="59" height="23" fill="#FCF9ED" stroke="#3F3007" stroke-width="2"/>
<rect x="35" y="40" width="41" height="23" fill="#FCF9ED" stroke="#3F3007" stroke-width="2"/>
<path d="M26 63H85V75L70.25 77L55.5 73L40.75 77L26 75V63Z" fill="#00995E" stroke="#3F3007" stroke-width="2"/>
<path d="M35 40H76V52L65.75 53.5L55.5 50.5L45.25 53.5L35 52V40Z" fill="#00995E" stroke="#3F3007" stroke-width="2"/>
<path d="M55 32C57.399 32 59.5 30.2021 59.5 27.8C59.5 26.6793 59.0256 25.2933 58.3145 24.1941C57.6287 23.134 56.4924 22 55 22C53.5076 22 52.3713 23.134 51.6855 24.1941C50.9744 25.2933 50.5 26.6793 50.5 27.8C50.5 30.2021 52.601 32 55 32Z" fill="#FD5A46" stroke="#3F3007" stroke-width="2"/>
</svg>
